<?xml version="1.0" encoding="UTF-8" standalone="no"?>
<svg
   xmlns:dc="http://purl.org/dc/elements/1.1/"
   xmlns:cc="http://creativecommons.org/ns#"
   xmlns:rdf="http://www.w3.org/1999/02/22-rdf-syntax-ns#"
   xmlns:svg="http://www.w3.org/2000/svg"
   xmlns="http://www.w3.org/2000/svg"
   xmlns:sodipodi="http://sodipodi.sourceforge.net/DTD/sodipodi-0.dtd"
   xmlns:inkscape="http://www.inkscape.org/namespaces/inkscape"
   version="1.1"
   id="svg2"
   xml:space="preserve"
   width="1066.6667"
   height="1066.6667"
   viewBox="0 0 1066.6667 1066.6667"
   sodipodi:docname="logo.svg"
   inkscape:version="1.0 (6e3e5246a0, 2020-05-07)"><metadata
     id="metadata8"><rdf:RDF><cc:Work
         rdf:about=""><dc:format>image/svg+xml</dc:format><dc:type
           rdf:resource="http://purl.org/dc/dcmitype/StillImage" /><dc:title /></cc:Work></rdf:RDF></metadata><defs
     id="defs6" /><sodipodi:namedview
     inkscape:document-rotation="0"
     pagecolor="#ffffff"
     bordercolor="#666666"
     borderopacity="1"
     objecttolerance="10"
     gridtolerance="10"
     guidetolerance="10"
     inkscape:pageopacity="0"
     inkscape:pageshadow="2"
     inkscape:window-width="1848"
     inkscape:window-height="1016"
     id="namedview4"
     showgrid="false"
     inkscape:zoom="0.81562494"
     inkscape:cx="533.33337"
     inkscape:cy="625.76156"
     inkscape:window-x="72"
     inkscape:window-y="27"
     inkscape:window-maximized="1"
     inkscape:current-layer="g10" /><g
     id="g10"
     inkscape:groupmode="layer"
     inkscape:label="ink_ext_XXXXXX"
     transform="matrix(1.3333333,0,0,-1.3333333,0,1066.6667)"><g
       style="fill:#000000"
       id="g12"
       transform="scale(0.1)"><path
         d="M 7999.99,0 H 0 V 7999.97 H 7999.99 V 0"
         style="fill:#000000;fill-opacity:1;fill-rule:nonzero;stroke:none"
         id="path14" /><path
         d="m 5401.05,2022.78 c 28.22,78.63 49.44,161.16 63.53,247.13 159.8,39.28 278.36,183.44 278.36,355.34 0,26.03 -2.76,51.39 -7.92,75.87 31.44,18.72 62.29,37.98 92.54,57.81 173.78,113.91 320.44,241.32 437.96,378.81 -172.48,-451.67 -476.19,-839.03 -864.47,-1114.96 z M 2910.1,2271.5 c -8.39,12.8 -16.62,25.74 -24.8,38.76 29.52,27.05 54.57,58.88 73.96,94.26 324.01,-93.81 676.78,-143.14 1040.74,-143.14 377.67,0 743.24,53.2 1077.19,154.01 48.55,-69.22 120.42,-120.84 204.24,-143.46 -29.43,-158.4 -86.65,-302.08 -171.02,-426.38 -332.87,-172.26 -710.47,-269.7 -1110.41,-269.7 -408.78,0 -795.85,247.05 -1089.9,695.65 z m -769.15,174.58 c 52.88,-6.68 106.77,-10.81 161.63,-12.26 56.45,-129.31 185.39,-219.73 335.5,-219.73 30.2,0 59.51,3.74 87.57,10.63 10.94,-17.61 22,-35.08 33.29,-52.3 113.91,-173.78 241.32,-320.44 378.81,-437.96 -390.52,149.13 -732.9,396.42 -996.8,711.62 z m 31.48,312.85 c 37.62,-24.66 76.29,-48.36 115.74,-71.3 -6.99,-22.8 -11.83,-46.53 -14.25,-70.97 -103.19,4.71 -201.79,19.68 -294.17,45.12 -98.42,148.08 -180.96,307.54 -245.28,475.96 117.53,-137.49 264.18,-264.9 437.96,-378.81 z m -210.08,2552.84 c 98.3,27.01 202.23,43.12 310.29,48.96 5.95,-111.64 61.93,-209.99 145.92,-273.05 -102.88,-336.78 -157.17,-706.07 -157.17,-1087.7 0,-393.83 57.82,-774.51 167.18,-1119.87 -16.42,-11.49 -31.85,-24.27 -46.15,-38.24 -37.84,21.94 -74.89,44.61 -110.91,68.22 -448.59,294.05 -695.65,681.11 -695.65,1089.89 0,483 142.06,933.41 386.49,1311.79 z m 1175.4,953.73 c -137.49,-117.52 -264.9,-264.17 -378.81,-437.95 -18.68,-28.49 -36.82,-57.58 -54.52,-87.14 -21.52,3.94 -43.67,6.11 -66.34,6.11 -143.43,0 -267.52,-82.56 -327.53,-202.7 -65.06,-1.98 -128.79,-7.25 -190.99,-15.85 266.67,327.57 617.03,584.34 1018.19,737.53 z m 1892.24,-71.43 c 263.16,-506.15 155.62,-1247.77 -249.1,-1940.53 -114.41,138.7 -240.71,271.67 -377.51,396.63 -390.84,357.03 -837.42,623.16 -1291.46,769.64 -38.61,12.46 -77.04,23.91 -115.29,34.52 -17.19,83.96 -63.15,157.41 -127.11,209.69 13.27,21.76 26.73,43.32 40.58,64.44 294.05,448.6 681.12,695.65 1089.9,695.65 368.09,0 717.2,-82.61 1029.99,-230.04 z M 3175.41,2604.25 c 465.27,184.1 910.75,500.72 1288.26,915.64 120.99,132.98 231.82,273.43 331.2,418.63 195.39,-274.89 341.53,-566.79 426.63,-858.07 10.95,-37.45 20.68,-74.6 29.46,-111.47 -140.06,-51.35 -240,-185.87 -240,-343.73 0,-13.69 0.82,-27.19 2.28,-40.5 -313.71,-93.36 -657.48,-142.62 -1013.24,-142.62 -326.89,0 -643.68,41.48 -936.3,120.64 37.08,12.88 74.32,26.68 111.71,41.48 z m -733.27,1395.73 c 0,357.69 49.78,703.22 144.12,1018.28 16.94,-2.41 34.22,-3.72 51.82,-3.72 162.73,0 300.58,106.24 348.17,253.12 441.83,-130.05 898.69,-388.71 1295.23,-750.94 146.16,-133.5 279.59,-276.41 398.48,-425.6 -102.05,-154.62 -218.95,-305.58 -349.98,-449.6 -359.06,-394.63 -781.3,-695.19 -1221.08,-869.22 -44.81,-17.72 -89.53,-33.88 -134.09,-48.64 -55.82,130.76 -185.56,222.42 -336.73,222.42 -13.61,0 -27.03,-0.81 -40.26,-2.25 -101.86,325.14 -155.68,684.09 -155.68,1056.15 z m 3981.99,0 c 0,-408.78 -247.05,-795.84 -695.66,-1089.89 -24.21,-15.87 -48.94,-31.28 -73.99,-46.4 -55.73,64.82 -133.7,109.95 -222.13,123.39 -10.82,47.61 -23.21,95.63 -37.35,144.06 -96.7,330.93 -266.73,661.85 -494.9,969.89 177.22,290.04 308.38,594.69 382.46,894.35 95.79,387.5 93.83,754.18 -2.24,1062.12 686.23,-428.57 1143.81,-1190.55 1143.81,-2057.52 z m -582.21,1841.93 c -202.79,202.8 -433.2,367.93 -682.66,492.13 -0.03,0.05 -0.05,0.09 -0.08,0.13 l -0.1,-0.05 c -355.68,177.04 -750.16,270.74 -1159.08,270.74 -695.79,0 -1349.94,-270.96 -1841.93,-762.95 -492,-491.99 -762.95,-1146.13 -762.95,-1841.93 0,-695.79 270.95,-1349.92 762.95,-1841.92 491.99,-492.01 1146.14,-762.95 1841.93,-762.95 695.79,0 1349.92,270.94 1841.92,762.95 492.01,492 762.95,1146.13 762.95,1841.92 0,695.8 -270.94,1349.94 -762.95,1841.93"
         style="fill:#000000;fill-opacity:1;fill-rule:nonzero;stroke:none"
         id="path16" /></g><path
       style="fill:#ff00ff;fill-opacity:1;stroke-width:1.22605;opacity:0.59"
       d="m 502.069,878.74952 c -15.96503,-1.9001 -33.64921,-4.66101 -42.91188,-6.69955 C 324.93359,842.50996 219.11663,734.33567 193.2104,600.17865 c -4.83311,-25.02853 -6.06156,-38.43042 -6.08375,-66.37112 -0.0269,-33.87627 2.49386,-54.95679 10.26262,-85.82376 29.49754,-117.19996 120.2454,-211.8659 236.63375,-246.85048 29.57665,-8.8903 55.49649,-12.94359 88.8889,-13.90027 56.4662,-1.61773 108.49906,9.03365 157.45896,32.23264 108.38976,51.359 180.868,150.9981 196.99432,270.81696 2.59672,19.29372 2.93527,63.78584 0.62506,82.1456 -7.91437,62.89714 -30.44203,119.39048 -67.03834,168.11424 -59.05828,78.62925 -145.56113,127.61066 -243.28904,137.76009 -10.81182,1.12285 -57.25585,1.43933 -65.59388,0.44697 z m 53.85884,-22.4946 c 39.00283,-2.85248 75.62134,-12.06547 110.77807,-27.87113 l 15.05835,-6.76989 4.8048,-8.11774 c 6.72394,-11.3601 12.04664,-24.41262 15.48889,-37.98234 1.61811,-6.37879 2.7998,-11.67978 2.62597,-11.77997 -0.17383,-0.10017 -3.95557,-1.93648 -8.40385,-4.08064 -4.91972,-2.37138 -10.20257,-6.18584 -13.48659,-9.73795 l -5.39879,-5.83951 -20.22989,5.11188 c -43.51875,10.99672 -73.97536,14.51957 -125.05748,14.4651 -48.966,-0.0522 -80.3069,-3.69889 -121.82934,-14.17552 -8.0023,-2.01908 -14.97668,-3.50867 -15.49862,-3.31021 -0.52196,0.19848 -3.1858,3.20298 -5.91968,6.6767 l -4.97069,6.31585 6.03059,8.75408 c 15.26542,22.15946 36.28884,44.81383 53.22473,57.35377 22.91319,16.96574 49.14528,27.96599 73.63734,30.87932 11.97406,1.42431 20.81632,1.44875 39.14619,0.10826 z m -151.30783,-35.2443 c -14.74272,-14.92778 -21.2244,-22.81306 -33.30662,-40.5191 l -7.10351,-10.40994 -12.60301,-0.13585 c -11.27618,-0.12151 -13.37749,-0.51276 -19.95934,-3.71588 -8.15719,-3.96976 -20.0572,-15.20429 -22.59525,-21.33164 -1.5376,-3.71213 -1.92177,-3.88821 -8.51135,-3.9011 -3.79558,-0.007 -9.08883,-0.37474 -11.76277,-0.81628 l -4.86172,-0.80279 4.24869,5.40612 c 6.88414,8.75954 28.72169,29.85102 41.79325,40.3654 13.82394,11.11956 28.90527,21.45333 43.87586,30.06386 11.85152,6.81653 40.26006,20.1082 43.09913,20.16502 1.0528,0.0211 -4.48822,-6.44445 -12.31336,-14.36782 z M 731.16487,789.5907 c 44.74737,-35.03915 78.51151,-78.93937 100.9134,-131.20786 2.28126,-5.32267 3.93958,-9.88573 3.68518,-10.14014 -0.25441,-0.25442 -5.37077,4.57459 -11.36968,10.7311 -13.10584,13.45015 -32.42187,29.21269 -48.30176,39.41586 l -11.64751,7.48377 -0.0286,11.13181 c -0.0242,9.44392 -0.52391,12.19805 -3.29566,18.16379 -5.97833,12.86742 -14.82138,21.5219 -26.73768,26.16755 -3.02153,1.17797 -5.67577,2.2801 -5.8983,2.44917 -0.22254,0.16907 -1.42421,4.90694 -2.67037,10.52859 -1.24618,5.62165 -3.13306,12.63538 -4.19309,15.58606 -2.07737,5.7825 -2.34955,7.50868 -1.18398,7.50868 0.40884,0 5.23643,-3.51827 10.72797,-7.81838 z M 594.02303,738.09731 c 23.13234,-3.11334 52.14019,-8.88902 68.43339,-13.62559 l 6.60832,-1.92109 0.13225,-7.76033 c 0.16626,-9.75678 3.79891,-19.68839 10.13174,-27.70001 4.72517,-5.9778 16.13735,-14.73869 19.19902,-14.73869 2.37717,0 1.85263,-4.41728 -2.06901,-17.42375 -11.13097,-36.91689 -27.21828,-70.32084 -50.43911,-104.73263 -3.35187,-4.96726 -6.32144,-9.03137 -6.59904,-9.03137 -0.2776,0 -5.32008,6.48276 -11.20552,14.40613 -39.20113,52.77529 -85.11208,95.59126 -138.72297,129.37132 -16.88302,10.63794 -49.72736,27.23065 -67.4231,34.06166 -7.58621,2.92845 -13.79311,5.70353 -13.79311,6.16682 0,0.98117 -0.79175,0.79216 26.97319,6.43902 18.35087,3.73222 38.30558,6.69281 58.23755,8.64045 13.27006,1.29666 86.57059,-0.2723 100.5364,-2.15194 z M 304.41319,707.00274 c -0.67639,-0.22546 -6.9633,-4.14856 -13.97091,-8.71799 C 273.45824,687.21 255.5883,672.62384 242.27298,658.967 c -5.99892,-6.15277 -11.11527,-10.97872 -11.36968,-10.7243 -1.44335,1.44335 19.0627,43.25504 28.11315,57.32251 l 4.40924,6.85346 9.73575,2.10354 c 5.35466,1.15694 14.35974,2.48667 20.0113,2.95496 l 10.27556,0.85145 1.09734,-5.45798 c 0.71168,-3.53972 0.66513,-5.60204 -0.13245,-5.8679 z m 104.75347,-7.19288 c 17.87959,-6.59383 51.5689,-23.42027 69.60732,-34.76605 52.68895,-33.14021 103.46584,-81.99877 139.34339,-134.07903 3.26918,-4.7456 5.94398,-9.22798 5.94398,-9.96087 0,-1.96093 -19.09679,-23.84115 -34.12305,-39.09659 C 538.59569,429.78162 475.79695,389.61668 412.04498,368.13 c -7.70479,-2.59679 -14.08832,-4.58856 -14.18563,-4.42617 -0.0974,0.16239 -1.66217,3.39845 -3.47748,7.19125 -7.017,14.66088 -23.83266,25.46056 -40.92068,26.28089 l -9.44681,0.45349 -2.15716,7.7059 c -7.45596,26.63428 -13.48523,63.25481 -15.70172,95.36872 -3.81149,55.22357 2.43754,115.35648 17.21574,165.66279 l 2.38387,8.11488 9.0216,0.57897 c 15.97245,1.02505 32.04288,11.0454 38.72699,24.14733 1.40882,2.76152 2.81319,5.02095 3.12082,5.02095 0.30763,0 5.9516,-1.98861 12.54214,-4.41914 z m -87.99567,-14.1248 c 3.52223,-2.6041 3.52301,-2.60774 1.76011,-8.27586 -15.15842,-48.73764 -22.45517,-109.59939 -20.00933,-166.89669 1.60057,-37.49585 5.51061,-64.30514 14.89056,-102.09764 l 5.10417,-20.56508 -5.68065,-5.79507 c -6.52788,-6.65939 -11.56803,-16.64707 -12.71984,-25.20594 l -0.79725,-5.92425 -7.49156,0.79304 c -9.0414,0.95712 -19.90867,2.68656 -28.7191,4.57039 -6.48063,1.38567 -6.54695,1.44725 -12.6022,11.699 -21.82155,36.94466 -35.56844,76.03369 -42.36237,120.45658 -1.52624,9.97953 -2.16843,21.62326 -2.19769,39.84675 -0.0362,22.56473 0.29175,27.06131 2.65346,36.37954 11.75375,46.37502 44.1829,86.34535 96.56622,119.02208 4.05315,2.52836 7.52964,4.59732 7.72553,4.59771 0.19588,3.8e-4 1.94186,-1.17168 3.87994,-2.60456 z m 444.29786,-7.36163 c 46.74478,-31.2629 75.58097,-67.95071 87.56391,-111.40608 2.99728,-10.86947 3.21654,-13.42814 3.25741,-38.01403 0.0465,-27.94749 -1.4201,-41.64839 -7.21812,-67.43296 C 831.34208,382.62271 781.844,310.38923 714.52592,265.12465 c -5.92409,-3.98335 -10.77049,-6.81443 -10.76978,-6.29129 7.1e-4,0.52314 1.34896,6.4684 2.99609,13.2117 4.69112,19.20532 5.9814,31.34903 5.92722,55.78544 -0.12787,57.67452 -18.73029,120.63137 -53.07895,179.63706 -3.52643,6.05787 -6.43553,11.56602 -6.46467,12.24035 -0.0292,0.67433 3.29841,5.91571 7.39455,11.64751 27.28699,38.18324 52.53306,91.82677 61.58896,130.86593 1.41643,6.1061 1.73967,6.48792 6.5817,7.77475 7.20159,1.91389 15.83732,6.82506 20.54898,11.68626 2.2154,2.28571 4.24279,4.15583 4.50532,4.15583 0.26252,0 5.53361,-3.38164 11.71351,-7.51476 z M 644.66106,488.13703 c 31.03041,-56.10177 47.27429,-117.41148 45.23405,-170.72798 -1.02339,-26.74399 -5.88128,-49.17309 -14.88857,-68.74124 l -3.98834,-8.66461 -10.88355,-4.67552 c -26.28071,-11.29008 -62.57477,-20.77297 -91.50391,-23.90809 -17.63041,-1.91064 -49.26462,-1.62617 -60.61268,0.54507 -35.98387,6.88485 -71.56247,29.24525 -99.58085,62.58445 -9.5428,11.355 -23.86537,31.33488 -25.48152,35.54649 -0.42809,1.11559 1.30662,4.01569 4.42667,7.40053 5.03128,5.4583 11.04945,16.44244 11.07312,20.21022 0.009,1.36983 5.44796,3.70999 19.32233,8.31307 75.46198,25.03585 149.70182,75.29484 207.21185,140.27853 6.41535,7.24904 12.05448,13.18008 12.53143,13.18008 0.47694,0 3.68993,-5.10345 7.13997,-11.341 z M 301.33544,328.36119 c 6.7745,-0.68581 7.90331,-1.18079 9.4313,-4.13559 0.95465,-1.84609 5.05878,-6.43309 9.12027,-10.19333 9.6953,-8.97613 18.15999,-12.33279 31.43176,-12.46424 l 9.86279,-0.0977 7.68839,-11.76001 c 11.01099,-16.84221 23.19217,-31.74341 37.7431,-46.17103 6.97094,-6.91188 12.22299,-12.56705 11.67122,-12.56705 -1.98317,0 -17.0012,6.50958 -29.83054,12.93006 -32.87195,16.4509 -56.83063,34.03941 -85.31194,62.62909 -11.63219,11.67644 -21.14943,21.84895 -21.14943,22.60559 0,0.92014 1.92854,1.14847 5.82375,0.68947 3.20307,-0.37743 9.28676,-1.03681 13.51933,-1.46528 z"
       id="path36"
       transform="matrix(0.75000002,0,0,-0.75000002,0,800.00005)" /></g></svg>
